<svg width="311" height="181" viewBox="0 0 311 181" fill="none" xmlns="http://www.w3.org/2000/svg">
<path d="M150.287 166.255C151.147 168.999 153.728 170.905 153.441 174.411C151.075 173.648 149.139 172.658 148.135 170.142C147.203 167.78 145.913 165.569 144.909 163.283C143.26 159.472 142.399 155.204 140.177 151.622C138.384 148.725 138.169 145.6 137.882 142.323C137.81 141.713 137.667 140.875 138.384 140.722C139.029 140.57 139.818 141.561 140.679 143.009C142.399 146.058 144.192 151.088 144.694 152.155C146.845 156.804 148.781 161.454 150.287 166.255ZM469 167.17C468.57 166.103 468.211 164.96 467.996 163.816C463.909 160.539 459.894 157.262 455.377 154.594C453.226 153.298 451.218 151.774 449.354 150.097C449.354 149.792 449.282 149.487 448.995 149.183C446.844 146.591 444.621 144.076 442.47 141.485C440.893 138.665 438.67 136.302 436.232 134.396C432.361 131.348 428.775 128.146 425.549 124.488C421.318 119.686 416.299 117.705 410.205 118.391C406.906 118.772 404.469 117.095 403.106 114.122C401.17 109.93 397.657 106.806 394.144 104.214C390.917 101.851 386.113 99.6411 383.89 96.2113C382.958 94.8394 381.668 93.6961 380.951 92.0955C378.728 87.37 374.784 85.236 370.41 83.3305C368.546 82.5683 367.184 81.044 366.037 79.4434C364.746 77.6904 363.384 76.2423 361.95 74.5655C360.587 73.0411 360.157 70.6784 358.866 68.9254C357.361 66.8675 355.496 65.1145 353.56 63.5139C350.477 60.9225 347.394 58.3311 344.813 55.2062C342.949 52.9197 341.299 51.4715 338.575 53.2245C336.352 54.6727 334.201 56.2732 332.265 58.1025C331.405 58.9409 330.544 59.7793 329.827 60.6939C329.182 61.5323 328.68 63.2091 327.891 63.895C323.948 67.401 319.144 69.84 315.2 73.346C313.91 74.4893 312.404 74.1082 311.543 72.4314C308.962 67.5535 305.305 63.6664 301.72 59.703C300.932 58.7884 299.999 58.0263 299.067 57.4165C296.056 55.5873 293.69 52.9959 289.818 53.5294C289.674 53.377 289.603 53.3008 289.459 53.1483C284.584 48.4991 280.497 43.0876 276.051 38.0572C274.976 36.8378 274.259 35.2372 273.255 33.9415C271.462 31.5787 268.881 30.4355 266.371 29.1398C261.639 26.8532 257.48 23.4235 253.322 20.1461C247.155 15.3444 241.706 9.93293 238.049 2.61604C236.328 -0.737536 233.819 -0.813763 231.023 2.08251C226.147 7.11287 221.701 12.6006 217.471 18.2407C214.961 21.5942 212.093 24.4905 208.867 27.0057C208.15 27.5392 207.504 28.1489 206.787 28.7587C203.059 30.7403 199.904 33.5604 197.394 37.2188C197.251 37.4475 197.179 37.6761 197.179 37.9048C194.096 40.8011 191.3 43.6973 189.005 47.2034C185.277 52.8435 181.477 58.4836 178.035 64.2761C174.378 70.4497 169.072 74.9466 164.34 79.9769C161.185 83.3305 157.6 86.3792 153.656 88.8182C151.29 90.2663 149.068 90.0377 146.773 88.2847C145.769 87.5225 144.694 86.6841 143.618 85.9981C143.618 85.617 143.475 85.236 143.045 84.9311C139.89 82.6446 136.233 80.358 133.293 77.6142C130.21 74.6417 127.127 71.6692 124.044 68.6967C121.964 66.7151 119.24 62.7518 116.013 63.2091C114.723 63.4377 111.783 64.3523 111.137 65.7242C110.564 66.9437 110.277 68.2394 109.703 69.4589C108.413 72.2028 106.692 74.5655 104.398 76.3185C99.0199 80.6629 94.7178 86.303 89.8421 91.1809C84.5362 96.44 78.0113 99.7173 72.2035 104.367C70.9129 104.671 70.0524 106.348 68.6901 106.577C65.9655 107.034 63.3842 108.406 61.018 110.083C57.0745 112.979 56.1423 118.162 52.8441 121.592C51.9119 122.506 51.1232 123.573 50.1194 124.412C49.3307 125.098 48.1835 125.555 47.4664 126.317C45.8173 127.765 44.1682 129.137 42.4473 130.509C39.2208 133.177 35.9942 135.159 32.4091 137.14C25.7409 140.951 19.5745 145.219 15.6309 152.384C13.1214 156.957 9.89482 160.996 7.09845 165.341C4.804 168.847 2.86806 172.658 0 176.011C0.573613 176.316 0.788717 176.545 0.93212 176.468C6.16634 174.411 11.544 175.097 16.8499 175.401C21.5105 175.63 24.8087 173.191 28.3221 170.142C31.4053 167.475 35.3489 165.112 38.7906 163.13C40.1529 162.292 42.0171 161.911 43.3078 160.996C44.5267 160.158 45.2437 158.481 46.3909 157.49C48.9005 155.356 50.4779 152.536 52.0553 149.564C52.7724 148.116 54.2781 147.43 55.8555 147.125C59.4406 146.515 61.7351 144.228 63.3125 140.799C65.105 136.988 68.1165 134.168 71.2714 131.652C72.562 130.585 73.996 128.985 75.5018 128.451C77.6528 127.689 80.4492 127.994 82.6719 127.613C88.408 126.698 93.2121 123.116 97.2991 118.848C101.673 114.199 105.903 109.549 108.484 103.3C108.986 102.004 110.707 100.479 112.213 99.26C116.157 96.2113 119.885 92.8577 119.096 86.6841C118.881 84.9311 119.383 83.1781 119.742 81.4251C120.817 81.1202 121.749 80.4342 121.964 79.1385C121.964 79.0623 121.964 78.9861 121.964 78.9099C122.753 77.8429 123.327 78.2239 125.406 79.6721C125.478 79.7483 125.549 79.7483 125.621 79.8245C127.055 81.4251 128.704 82.7208 130.425 83.864C136.95 89.7328 143.618 95.2967 151.577 99.0313C156.238 101.242 159.464 105.053 160.181 110.769C160.54 113.894 162.117 116.638 163.551 119.305C164.34 120.83 164.483 124.031 166.419 124.412C166.921 124.488 167.567 124.564 167.925 124.945C168.212 125.25 168.284 125.708 168.355 126.165C169.001 129.366 171.438 130.89 173.733 132.796C181.047 138.817 186.209 148.573 194.813 152.689C199.115 154.746 202.7 158.1 206.285 161.377C212.523 167.017 219.048 173.496 226.649 176.926C227.724 177.383 229.23 178.679 230.019 177.307C230.736 176.087 229.732 174.563 228.728 173.496C227.007 171.743 225.286 169.99 223.494 168.389C221.916 167.017 221.271 165.188 220.769 163.13C220.196 160.691 220.913 159.243 222.418 157.338C224.283 155.051 225 152.384 225.86 149.487C226.362 147.658 227.366 146.058 228.943 144.991C230.664 143.847 232.743 143.771 234.392 142.552C238.408 139.579 240.631 132.491 240.917 127.537C241.204 122.354 241.706 117.171 241.921 111.988C241.993 110.54 242.495 109.016 243.785 108.33C244.646 107.796 245.721 107.644 246.653 107.415C250.023 106.501 248.733 103.147 249.306 100.632C249.02 101.775 251.242 100.784 251.386 100.632C253.107 99.5649 254.612 97.1259 256.763 96.9735C258.771 96.821 260.062 99.0313 261.137 100.556C263.001 103.223 265.009 105.739 267.59 107.72C273.111 112.065 277.342 117.552 279.134 124.717C279.493 126.089 280.425 128.451 280.998 129.747C283.293 134.777 285.085 140.036 287.667 144.914C288.025 145.677 291.252 151.317 293.044 151.469C293.618 151.545 293.976 151.393 293.976 150.631C293.833 147.811 291.754 146.134 290.463 143.924C290.176 143.39 289.818 141.332 289.244 139.503C287.237 132.643 284.799 126.012 281.572 119.61C280.712 117.933 280.568 115.647 279.636 113.818C277.987 110.54 275.119 108.254 272.753 105.662C268.092 100.479 264.22 95.1443 265.224 87.3701C266.156 87.0652 266.586 87.9798 267.232 88.5133C271.606 91.7907 276.194 94.9156 281.07 97.2784C283.365 98.3454 285.372 99.1076 287.452 100.708C290.463 103.071 292.829 106.12 295.769 108.559C298.494 110.769 301.362 112.827 303.154 116.028C304.732 118.924 307.385 120.982 309.464 123.421C311.328 125.631 311.974 128.528 312.977 131.195C313.479 132.567 314.053 133.863 314.985 135.006C317.566 138.36 317.351 142.933 318.785 146.82C319.574 149.03 319.717 151.774 321.151 153.756C322.585 155.737 323.804 158.024 324.736 160.31C325.669 162.597 326.027 165.417 327.891 167.018C328.68 167.703 329.54 168.313 330.329 168.999C330.831 170.447 331.763 171.819 332.839 173.267C333.341 167.551 330.688 162.444 328.393 157.566C325.31 151.012 324.808 143.771 323.661 136.607C325.167 136.607 326.171 137.369 327.031 138.131C332.122 142.247 337.643 145.905 340.941 152.003C341.658 153.298 342.949 153.984 344.168 154.518C347.036 155.737 349.33 157.49 350.979 160.31C352.055 162.14 353.417 163.13 355.21 163.816C357.361 164.655 359.368 165.874 361.519 166.789C364.172 167.856 366.825 167.932 369.406 166.636C370.267 166.255 369.98 164.807 368.761 164.274C366.825 163.359 364.961 162.292 362.953 161.606C360.157 160.615 357.863 158.862 356.213 156.576C353.632 152.841 350.191 150.326 346.749 147.734C342.805 144.762 339.507 141.027 337.499 136.378C335.922 132.796 333.484 130.967 330.186 129.823C328.035 129.061 325.812 128.375 323.948 127.079C315.487 119 308.962 108.863 300.143 101.089C295.339 96.8211 290.248 92.4766 284.225 89.6566C279.564 87.5225 274.832 85.3884 271.606 80.8153C271.534 80.7391 271.462 80.6629 271.39 80.5867C271.319 80.5105 271.319 80.4342 271.247 80.358C270.817 79.7483 270.315 79.2148 269.813 78.8337C269.741 78.7575 269.741 78.7575 269.67 78.6812C267.805 76.6996 265.583 75.099 263.001 74.2606C260.277 73.2698 256.118 75.5563 254.469 78.8337C254.326 79.1385 254.326 79.5958 254.11 79.8245C250.956 82.9494 248.876 86.989 246.008 90.4188C242.638 94.3821 238.551 95.068 234.321 97.507C231.238 99.3362 229.517 103.3 227.151 106.043C224.283 109.473 221.701 113.132 220.554 117.628C220.196 119.229 219.12 120.449 217.973 121.516C215.893 123.65 213.527 125.25 210.946 126.622C210.014 127.079 209.01 127.613 208.437 128.451C205.568 132.338 201.051 133.482 197.466 136.226C195.96 137.369 194.742 137.216 193.307 135.54C191.3 133.177 188.647 131.576 187.5 128.299C186.854 126.546 186.496 125.555 186.854 124.945C189.292 124.412 191.587 123.65 193.881 122.506C194.885 122.049 194.598 120.83 193.881 120.296C197.251 114.275 200.549 108.635 201.84 102.08C203.131 95.5253 202.772 88.6657 204.35 82.111C205.138 78.7575 206.285 75.785 209.154 73.4984C211.806 71.4406 213.241 68.0108 215.176 65.1907C215.822 64.2761 215.822 63.0566 215.75 61.8372C215.392 56.5781 215.893 50.4045 220.196 47.0509C222.92 44.8406 225.071 41.8681 226.29 38.4383C227.581 34.8561 227.222 31.0452 229.732 27.9965C232.026 25.2527 233.891 22.2802 234.536 18.6217C234.823 17.0974 235.898 16.0304 236.974 15.3444C239.34 13.82 243.714 20.2223 245.219 21.5942C250.167 26.1673 255.616 30.283 260.994 34.2464C263.073 35.7707 265.439 36.9902 267.662 38.3621C270.889 40.2676 272.825 44.0784 275.191 46.9747C276.266 48.3466 276.194 49.3375 274.402 49.2612C269.741 49.0326 266.013 51.7764 261.926 53.6056C260.779 54.1392 259.631 54.7489 259.13 56.5781C261.496 56.2732 263.647 56.1208 265.798 55.7397C268.379 55.2062 270.817 56.197 273.255 56.9592C275.908 57.7976 278.561 57.7976 281.285 58.1025C287.093 58.7884 293.761 60.2366 297.705 65.0383C301.72 69.9162 305.162 75.2514 308.317 80.7391C311.041 85.3884 313.981 89.9615 316.849 94.4583C317.279 95.1443 317.925 96.2875 318.785 95.8302C319.646 95.3729 319.144 94.2296 319 93.3913C318.857 92.4004 318.57 91.4858 318.714 90.2663C323.087 91.2572 326.744 93.5437 329.54 96.821C336.424 104.976 342.59 113.741 348.9 122.354C350.477 124.488 351.194 126.775 351.911 129.137C352.7 131.652 353.704 134.015 355.425 135.997C358.006 138.969 359.368 142.704 361.448 145.981C361.95 146.744 362.236 147.582 363.384 147.582C363.886 146.363 363.742 144.762 363.24 144C360.802 140.265 360.802 135.768 359.655 131.652C359.225 130.052 359.082 129.061 359.44 128.375C360.587 128.528 361.734 128.604 362.953 128.756C366.825 130.738 370.482 133.177 374.569 134.777C377.437 135.844 379.947 137.445 382.026 139.808C384.464 142.552 387.332 144.609 390.272 146.515C391.06 147.048 391.276 148.573 391.706 149.64C393.068 153.07 393.57 156.728 394.144 160.387C394.502 162.673 395.076 164.883 397.012 167.399C396.366 161.835 395.291 156.881 395.219 151.469C399.091 153.756 403.178 154.746 405.759 158.71C406.978 160.539 409.273 161.377 411.065 162.597C413.431 164.121 415.941 165.264 418.379 166.332C421.103 167.551 423.971 168.313 427.198 168.389C426.768 166.713 425.405 166.255 424.402 165.646C416.156 161.073 409.057 154.899 402.461 147.963C400.453 145.829 398.589 143.466 396.653 141.18C393.068 136.988 389.77 132.491 385.324 129.137C381.452 126.165 378.799 121.897 375.573 118.238C371.629 113.741 366.682 110.464 362.523 106.272C357.432 101.089 351.338 97.507 345.387 93.5437C342.017 91.2571 341.156 87.1414 340.152 83.3305C339.292 80.1294 339.292 76.852 340.224 73.7271C341.228 70.3735 341.515 67.0199 341.515 63.5901C341.515 62.5231 341.586 61.5323 342.447 61.075C343.307 60.6177 343.952 61.6085 344.669 62.142C349.975 66.1053 352.915 72.1265 356.644 77.538C357.934 79.4434 359.153 81.3489 359.44 83.7878C359.655 85.3122 360.731 86.2268 362.021 86.9128C364.531 88.2847 366.969 89.6566 369.478 90.9523C371.916 92.248 373.852 93.9248 375.286 96.44C378.943 103.376 383.819 108.787 391.204 111.683C394.717 113.055 397.657 116.257 400.095 119.534C400.812 120.525 401.099 121.82 400.167 122.735C398.732 124.107 398.732 126.317 397.298 127.689C396.366 128.528 397.083 129.9 398.231 129.671C399.019 129.518 399.951 128.223 400.525 127.689C403.178 125.25 405.114 124.031 408.699 123.878C412.141 123.802 415.152 124.945 418.307 126.393C426.911 130.509 432.791 137.826 438.885 144.991C441.897 148.573 444.765 152.46 449.067 154.594C450.429 155.28 451.003 156.576 451.361 158.024C452.007 160.387 453.369 162.292 454.803 164.274C455.305 164.045 455.879 163.893 456.452 163.74C456.094 161.682 454.66 160.082 454.588 158.1C455.592 158.024 456.165 158.786 456.739 159.243C460.898 162.216 464.626 165.188 469 167.17ZM194.24 168.999C193.594 167.399 192.877 165.95 191.3 164.655C190.655 163.283 189.579 162.063 188.002 161.073C181.62 156.881 174.88 153.451 168.427 149.487C165.989 147.963 164.125 145.6 162.261 143.39C160.253 141.027 158.102 139.427 155.592 137.75C149.068 133.329 142.614 128.299 136.95 122.659C136.735 121.058 135.373 119.839 133.939 119.534C133.867 119.534 133.867 119.534 133.795 119.534C132.505 116.866 130.067 114.58 127.557 114.199C125.908 113.97 124.546 114.808 123.398 115.875C120.674 118.391 118.021 121.211 115.153 123.573C112.213 126.012 109.058 128.832 105.832 130.738C102.748 132.567 98.8765 132.034 95.5782 131.957C92.7818 131.881 90.6308 132.948 88.7666 135.082C85.8985 138.36 81.7398 140.113 79.0868 143.466C78.8717 143.771 76.3622 143.771 75.8603 143.847C74.713 144.152 73.5658 144.533 72.562 145.143C70.4827 146.286 68.9769 148.039 67.1844 149.64C62.8823 153.451 58.867 157.643 54.8517 161.835C53.9913 162.749 52.9875 162.521 52.4139 163.207C48.1118 167.856 42.4473 171.438 40.5114 178.221C40.2963 178.984 39.651 179.593 40.0812 180.584C43.5946 177.307 47.1796 174.106 50.6213 170.752C52.0553 169.38 54.2781 169.152 55.7121 167.78C56.214 167.322 59.1538 163.969 59.9425 165.341C60.5161 166.332 60.2293 168.085 59.4406 169.456C57.7198 172.353 56.1423 175.249 54.063 177.917C58.2217 176.011 60.9463 172.658 63.1691 168.694C65.5352 164.35 68.5467 160.691 72.6337 157.948C77.7245 154.518 83.3889 152.307 88.4798 148.954C89.9855 147.963 91.2044 146.515 92.8535 145.829C93.714 145.981 94.9329 146.21 95.7933 145.981C96.0084 146.134 96.2235 146.363 96.4386 146.515C96.0801 147.506 95.4348 148.497 94.7895 149.335C91.7063 153.298 88.6949 157.338 85.3966 161.149C85.1815 161.454 84.9664 161.682 84.823 161.987C83.3889 163.054 82.17 164.274 81.1662 165.798C77.9396 168.923 74.2828 171.514 71.5582 175.249C69.7656 177.688 70.1958 179.517 73.0639 180.127C77.5094 181.042 81.7398 180.279 85.3966 177.307C88.4081 174.944 91.6346 173.801 95.3631 173.725C98.8048 173.648 101.745 172.353 104.398 169.914C106.692 167.78 109.847 166.789 111.854 164.197C114.436 160.92 117.16 157.719 118.164 153.527C118.594 151.698 119.813 150.554 120.817 149.183C121.964 147.658 124.546 147.201 126.051 146.286C128.274 144.838 128.704 142.323 129.063 139.808C129.493 136.226 131.286 133.863 133.508 131.576C135.014 130.052 136.52 129.976 137.882 131.805C141.324 136.607 146.2 139.122 151.075 141.713C153.943 143.238 156.668 145.067 158.747 148.116C160.97 151.317 162.978 154.67 165.057 158.024C166.491 160.387 167.495 164.35 169.646 165.95C172.944 168.389 175.095 170.447 177.246 174.106C178.322 176.011 179.612 177.764 181.692 179.746C181.118 172.962 179.899 167.17 175.095 163.13C173.159 161.454 172.657 159.243 172.156 156.499C177.461 158.405 181.692 161.454 185.635 165.036C187.715 166.941 189.794 169.228 192.16 170.828C192.662 173.115 195.315 172.962 196.391 174.715C195.889 173.953 195.817 172.353 195.459 171.438C194.813 170.523 194.526 169.685 194.24 168.999Z" fill="url(#paint0_linear_2126_963)"/>
<defs>
<linearGradient id="paint0_linear_2126_963" x1="234.5" y1="0" x2="234.5" y2="180.584" gradientUnits="userSpaceOnUse">
<stop offset="0.348958" stop-opacity="0.15"/>
<stop offset="0.947917" stop-opacity="0"/>
</linearGradient>
</defs>
</svg>
